<svg width="24" height="24" viewBox="0 0 24 24" fill="none" xmlns="http://www.w3.org/2000/svg">
<path d="M10.1693 13.8307C10.7017 14.337 10.7017 15.168 10.1693 15.6743C9.66297 16.1807 8.83203 16.1807 8.32567 15.6743C5.79389 13.1425 5.79389 9.02678 8.32567 6.495L12.9218 1.89884C15.4536 -0.632946 19.5694 -0.632946 22.1012 1.89884C24.6329 4.43062 24.6329 8.54639 22.1012 11.0782L20.1666 13.0127C20.1796 11.9481 20.0108 10.8834 19.6473 9.87071L20.2575 9.2475C21.7896 7.72843 21.7896 5.26156 20.2575 3.74249C18.7384 2.21044 16.2716 2.21044 14.7525 3.74249L10.1693 8.32567C8.63727 9.84474 8.63727 12.3116 10.1693 13.8307ZM13.8307 8.32567C14.337 7.81931 15.168 7.81931 15.6743 8.32567C18.2061 10.8575 18.2061 14.9732 15.6743 17.505L11.0782 22.1012C8.54639 24.6329 4.43062 24.6329 1.89884 22.1012C-0.632946 19.5694 -0.632946 15.4536 1.89884 12.9218L3.83338 10.9873C3.8204 12.0519 3.98918 13.1166 4.35272 14.1423L3.74249 14.7525C2.21044 16.2716 2.21044 18.7384 3.74249 20.2575C5.26156 21.7896 7.72843 21.7896 9.2475 20.2575L13.8307 15.6743C15.3627 14.1553 15.3627 11.6884 13.8307 10.1693C13.2983 9.66297 13.2983 8.83203 13.8307 8.32567Z" fill="black"/>
</svg>
