<svg width="64" height="64" viewBox="0 0 64 64" fill="none" xmlns="http://www.w3.org/2000/svg">
<g clip-path="url(#clip0_43_506)">
<path d="M32.0004 2.125C48.5004 2.125 61.8504 15.475 61.8504 31.95C61.8504 48.425 48.5004 61.8 32.0004 61.8C15.5004 61.8 2.15039 48.45 2.15039 31.975C2.15039 15.5 15.5004 2.125 32.0004 2.125Z" fill="#E74D89"/>
<path d="M32 63.925C14.35 63.925 0 49.6 0 31.975C0 14.325 14.35 0 32 0C49.65 0 64 14.325 64 31.95C64 49.575 49.65 63.925 32 63.925ZM58.975 36.325C58.05 36.025 50.525 33.8 41.95 35.15C45.525 44.95 46.975 52.95 47.25 54.6C53.4 50.475 57.775 43.925 58.975 36.325ZM42.675 57.125C42.275 54.725 40.675 46.375 36.85 36.425C36.8 36.45 36.725 36.475 36.675 36.475C21.25 41.85 15.725 52.525 15.225 53.525C19.85 57.125 25.675 59.275 32 59.275C35.775 59.3 39.4 58.525 42.675 57.125ZM11.7 50.25C12.325 49.2 19.825 36.8 33.925 32.225C34.275 32.1 34.65 32 35 31.9C34.325 30.35 33.575 28.8 32.775 27.275C19.125 31.35 5.875 31.175 4.675 31.15C4.675 31.425 4.65 31.7 4.65 31.975C4.675 39 7.325 45.4 11.7 50.25ZM5.25 26.4C6.475 26.425 17.725 26.475 30.525 23.075C26 15.025 21.1 8.275 20.4 7.3C12.725 10.9 7.025 17.95 5.25 26.4ZM25.6 5.45C26.35 6.45 31.325 13.2 35.8 21.425C45.525 17.775 49.625 12.275 50.125 11.575C45.3 7.3 38.95 4.7 32 4.7C29.8 4.7 27.65 4.975 25.6 5.45ZM53.15 14.725C52.575 15.5 48 21.375 37.9 25.5C38.525 26.8 39.15 28.125 39.725 29.45C39.925 29.925 40.125 30.4 40.325 30.85C49.425 29.7 58.45 31.55 59.35 31.725C59.275 25.3 56.975 19.375 53.15 14.725Z" fill="#B2215A"/>
</g>
<defs>
<clipPath id="clip0_43_506">
<rect width="64" height="64" fill="white"/>
</clipPath>
</defs>
</svg>
