<svg width="24" height="24" viewBox="0 0 24 24" fill="none" xmlns="http://www.w3.org/2000/svg">
<path d="M20.1452 6.65613H18.5465C18.2617 5.87782 17.7422 5.20537 17.0586 4.73015C16.375 4.25493 15.5605 4 14.7258 4C13.8911 4 13.0766 4.25493 12.393 4.73015C11.7094 5.20537 11.19 5.87782 10.9052 6.65613H3.85484C3.49551 6.65613 3.1509 6.79772 2.89682 7.04974C2.64274 7.30176 2.5 7.64358 2.5 8C2.5 8.35642 2.64274 8.69824 2.89682 8.95026C3.1509 9.20228 3.49551 9.34387 3.85484 9.34387H10.9052C11.19 10.1222 11.7094 10.7946 12.393 11.2699C13.0766 11.7451 13.8911 12 14.7258 12C15.5605 12 16.375 11.7451 17.0586 11.2699C17.7422 10.7946 18.2617 10.1222 18.5465 9.34387H20.1452C20.5045 9.34387 20.8491 9.20228 21.1032 8.95026C21.3573 8.69824 21.5 8.35642 21.5 8C21.5 7.64358 21.3573 7.30176 21.1032 7.04974C20.8491 6.79772 20.5045 6.65613 20.1452 6.65613ZM14.7258 9.34387C14.4578 9.34387 14.1959 9.26505 13.9731 9.11739C13.7503 8.96972 13.5766 8.75984 13.4741 8.51428C13.3716 8.26872 13.3447 7.99851 13.397 7.73782C13.4493 7.47714 13.5783 7.23768 13.7678 7.04974C13.9573 6.8618 14.1987 6.7338 14.4615 6.68195C14.7243 6.6301 14.9967 6.65671 15.2443 6.75843C15.4918 6.86014 15.7034 7.03239 15.8523 7.25339C16.0012 7.47438 16.0806 7.73421 16.0806 8C16.0806 8.35642 15.9379 8.69824 15.6838 8.95026C15.4297 9.20228 15.0851 9.34387 14.7258 9.34387Z" fill="#231F20"/>
<path d="M3.85484 18.3439H5.45355C5.73834 19.1222 6.25782 19.7946 6.94139 20.2698C7.62495 20.7451 8.43945 21 9.27419 21C10.1089 21 10.9234 20.7451 11.607 20.2698C12.2906 19.7946 12.81 19.1222 13.0948 18.3439H20.1452C20.5045 18.3439 20.8491 18.2023 21.1032 17.9503C21.3573 17.6982 21.5 17.3564 21.5 17C21.5 16.6436 21.3573 16.3018 21.1032 16.0497C20.8491 15.7977 20.5045 15.6561 20.1452 15.6561H13.0948C12.81 14.8778 12.2906 14.2054 11.607 13.7301C10.9234 13.2549 10.1089 13 9.27419 13C8.43945 13 7.62495 13.2549 6.94139 13.7301C6.25782 14.2054 5.73834 14.8778 5.45355 15.6561H3.85484C3.49551 15.6561 3.1509 15.7977 2.89682 16.0497C2.64274 16.3018 2.5 16.6436 2.5 17C2.5 17.3564 2.64274 17.6982 2.89682 17.9503C3.1509 18.2023 3.49551 18.3439 3.85484 18.3439ZM9.27419 15.6561C9.54216 15.6561 9.8041 15.7349 10.0269 15.8826C10.2497 16.0303 10.4234 16.2402 10.5259 16.4857C10.6284 16.7313 10.6553 17.0015 10.603 17.2622C10.5507 17.5229 10.4217 17.7623 10.2322 17.9503C10.0427 18.1382 9.80132 18.2662 9.53851 18.318C9.2757 18.3699 9.00328 18.3433 8.75572 18.2416C8.50815 18.1399 8.29656 17.9676 8.14769 17.7466C7.99882 17.5256 7.91935 17.2658 7.91935 17C7.91935 16.6436 8.0621 16.3018 8.31618 16.0497C8.57026 15.7977 8.91487 15.6561 9.27419 15.6561Z" fill="#231F20"/>
</svg>
