<svg width="24" height="24" viewBox="0 0 24 24" fill="none" xmlns="http://www.w3.org/2000/svg">
<path d="M19.0696 4.93008C17.4288 3.27858 15.2633 2.2513 12.9463 2.02533C10.6292 1.79935 8.30598 2.38886 6.37702 3.69221C4.44805 4.99557 3.03427 6.93109 2.37939 9.16509C1.72452 11.3991 1.86961 13.7916 2.78963 15.9301C2.88552 16.1288 2.91698 16.3526 2.87963 16.5701L2.3998 21.6403C2.3659 21.8025 2.37282 21.9706 2.41995 22.1294C2.46708 22.2882 2.55294 22.4329 2.6698 22.5503C2.76561 22.6454 2.87968 22.7202 3.00514 22.77C3.1306 22.8198 3.26485 22.8438 3.3998 22.8403H3.5998L7.47963 21.1401C7.69716 21.1139 7.91775 21.1449 8.11963 21.2301C10.2581 22.1501 12.6506 22.2952 14.8846 21.6403C17.1186 20.9854 19.0541 19.5717 20.3575 17.6427C21.6609 15.7137 22.2504 13.3905 22.0244 11.0735C21.7984 8.75645 20.7711 6.59087 19.1196 4.95008L19.0696 4.93008ZM7.99963 13.0001C7.80185 13.0001 7.60851 12.9414 7.44406 12.8316C7.27961 12.7217 7.15144 12.5655 7.07575 12.3828C7.00006 12.2 6.98026 11.999 7.01884 11.805C7.05743 11.611 7.15267 11.4328 7.29252 11.293C7.43238 11.1531 7.61056 11.0579 7.80454 11.0193C7.99852 10.9807 8.19959 11.0005 8.38231 11.0762C8.56504 11.1519 8.72122 11.2801 8.8311 11.4445C8.94098 11.609 8.99963 11.8023 8.99963 12.0001C8.99963 12.2653 8.89427 12.5197 8.70674 12.7072C8.5192 12.8947 8.26485 13.0001 7.99963 13.0001ZM11.9996 13.0001C11.8018 13.0001 11.6085 12.9414 11.4441 12.8316C11.2796 12.7217 11.1514 12.5655 11.0757 12.3828C11.0001 12.2 10.9803 11.999 11.0188 11.805C11.0574 11.611 11.1527 11.4328 11.2925 11.293C11.4324 11.1531 11.6106 11.0579 11.8045 11.0193C11.9985 10.9807 12.1996 11.0005 12.3823 11.0762C12.565 11.1519 12.7212 11.2801 12.8311 11.4445C12.941 11.609 12.9996 11.8023 12.9996 12.0001C12.9996 12.2653 12.8943 12.5197 12.7067 12.7072C12.5192 12.8947 12.2648 13.0001 11.9996 13.0001ZM15.9996 13.0001C15.8018 13.0001 15.6085 12.9414 15.4441 12.8316C15.2796 12.7217 15.1514 12.5655 15.0757 12.3828C15.0001 12.2 14.9803 11.999 15.0188 11.805C15.0574 11.611 15.1527 11.4328 15.2925 11.293C15.4324 11.1531 15.6106 11.0579 15.8045 11.0193C15.9985 10.9807 16.1996 11.0005 16.3823 11.0762C16.565 11.1519 16.7212 11.2801 16.8311 11.4445C16.941 11.609 16.9996 11.8023 16.9996 12.0001C16.9996 12.2653 16.8943 12.5197 16.7067 12.7072C16.5192 12.8947 16.2648 13.0001 15.9996 13.0001Z" fill="#5F5F5F"/>
</svg>
