<svg width="22" height="22" viewBox="0 0 22 22" fill="none" xmlns="http://www.w3.org/2000/svg">
<path d="M18.1098 0.332031H3.88759C2.94459 0.332031 2.04023 0.706633 1.37343 1.37343C0.706633 2.04023 0.332031 2.94459 0.332031 3.88759V18.1098C0.332031 19.0528 0.706633 19.9572 1.37343 20.624C2.04023 21.2908 2.94459 21.6654 3.88759 21.6654H18.1098C19.0528 21.6654 19.9572 21.2908 20.624 20.624C21.2908 19.9572 21.6654 19.0528 21.6654 18.1098V3.88759C21.6654 2.94459 21.2908 2.04023 20.624 1.37343C19.9572 0.706633 19.0528 0.332031 18.1098 0.332031ZM3.88759 2.7024H18.1098C18.4241 2.7024 18.7256 2.82727 18.9479 3.04953C19.1701 3.2718 19.295 3.57326 19.295 3.88759V13.7957L15.5024 10.5602C14.9148 10.0767 14.1774 9.81232 13.4165 9.81232C12.6555 9.81232 11.9182 10.0767 11.3305 10.5602L2.7024 17.7543V3.88759C2.7024 3.57326 2.82727 3.2718 3.04953 3.04953C3.2718 2.82727 3.57326 2.7024 3.88759 2.7024Z" fill="#231F20"/>
<path d="M6.68211 9.22066C7.73408 9.22066 8.58687 8.36787 8.58687 7.31589C8.58687 6.26392 7.73408 5.41113 6.68211 5.41113C5.63013 5.41113 4.77734 6.26392 4.77734 7.31589C4.77734 8.36787 5.63013 9.22066 6.68211 9.22066Z" fill="#231F20"/>
</svg>
