<svg width="32" height="32" viewBox="0 0 32 32" fill="none" xmlns="http://www.w3.org/2000/svg">
<path d="M16 4C12.7 4 9.05263 6.97129 9.05263 10.6029C9.05263 14.0364 8.44 17.1397 5.98 19.3847C4.75 20.5072 4 21.3742 4 23.0909H28C28 21.3742 27.28 20.5072 26.02 19.3847C23.56 17.1397 22.9474 14.0364 22.9474 10.6029C22.9474 6.97129 19.33 4 16 4ZM13 24.7273C13 26.5431 14.35 28 16 28C17.65 28 19 26.5431 19 24.7273H16H13Z" fill="#5F5F5F"/>
<rect x="14" width="16" height="10" rx="5" fill="#E60023"/>
<path d="M17.1157 6.35059H17.1841C17.4985 6.35059 17.7606 6.30957 17.9702 6.22754C18.1821 6.14323 18.3507 6.02702 18.4761 5.87891C18.6014 5.73079 18.6914 5.55648 18.7461 5.35596C18.8008 5.15544 18.8281 4.93783 18.8281 4.70312V3.84521C18.8281 3.64242 18.8065 3.46468 18.7632 3.31201C18.7222 3.15706 18.6629 3.02832 18.5854 2.92578C18.5103 2.82096 18.4225 2.74235 18.3223 2.68994C18.2243 2.63753 18.1183 2.61133 18.0044 2.61133C17.8791 2.61133 17.7663 2.63981 17.666 2.69678C17.568 2.75146 17.4849 2.8278 17.4165 2.92578C17.3504 3.02148 17.2992 3.13428 17.2627 3.26416C17.2285 3.39176 17.2114 3.52848 17.2114 3.67432C17.2114 3.81104 17.2274 3.9432 17.2593 4.0708C17.2935 4.19613 17.3436 4.30778 17.4097 4.40576C17.4757 4.50374 17.5589 4.58122 17.6592 4.63818C17.7594 4.69515 17.8768 4.72363 18.0112 4.72363C18.1388 4.72363 18.2562 4.69971 18.3633 4.65186C18.4704 4.60173 18.5638 4.53451 18.6436 4.4502C18.7233 4.36589 18.786 4.27132 18.8315 4.1665C18.8771 4.06169 18.9022 3.95459 18.9067 3.84521L19.2212 3.94092C19.2212 4.1141 19.1847 4.28499 19.1118 4.45361C19.0412 4.61995 18.9421 4.77262 18.8145 4.91162C18.6891 5.04834 18.5422 5.15771 18.3735 5.23975C18.2072 5.32178 18.026 5.36279 17.8301 5.36279C17.5931 5.36279 17.3835 5.31836 17.2012 5.22949C17.0212 5.13835 16.8708 5.0153 16.75 4.86035C16.6315 4.7054 16.5426 4.52767 16.4834 4.32715C16.4242 4.12663 16.3945 3.91585 16.3945 3.69482C16.3945 3.45557 16.431 3.23112 16.5039 3.02148C16.5768 2.81185 16.6828 2.62728 16.8218 2.46777C16.9608 2.30599 17.1294 2.18066 17.3276 2.0918C17.5282 2.00065 17.7549 1.95508 18.0078 1.95508C18.2767 1.95508 18.5125 2.00749 18.7153 2.1123C18.9181 2.21712 19.089 2.36182 19.228 2.54639C19.367 2.73096 19.4718 2.94515 19.5425 3.18896C19.6131 3.43278 19.6484 3.69482 19.6484 3.9751V4.26562C19.6484 4.55957 19.6222 4.84326 19.5698 5.1167C19.5174 5.38786 19.432 5.63965 19.3135 5.87207C19.1973 6.10221 19.0435 6.30501 18.8521 6.48047C18.6629 6.65365 18.4305 6.78923 18.1548 6.88721C17.8813 6.98291 17.5601 7.03076 17.1909 7.03076H17.1157V6.35059ZM21.0942 6.35059H21.1626C21.4771 6.35059 21.7391 6.30957 21.9487 6.22754C22.1606 6.14323 22.3293 6.02702 22.4546 5.87891C22.5799 5.73079 22.6699 5.55648 22.7246 5.35596C22.7793 5.15544 22.8066 4.93783 22.8066 4.70312V3.84521C22.8066 3.64242 22.785 3.46468 22.7417 3.31201C22.7007 3.15706 22.6414 3.02832 22.564 2.92578C22.4888 2.82096 22.401 2.74235 22.3008 2.68994C22.2028 2.63753 22.0968 2.61133 21.9829 2.61133C21.8576 2.61133 21.7448 2.63981 21.6445 2.69678C21.5465 2.75146 21.4634 2.8278 21.395 2.92578C21.3289 3.02148 21.2777 3.13428 21.2412 3.26416C21.207 3.39176 21.1899 3.52848 21.1899 3.67432C21.1899 3.81104 21.2059 3.9432 21.2378 4.0708C21.272 4.19613 21.3221 4.30778 21.3882 4.40576C21.4543 4.50374 21.5374 4.58122 21.6377 4.63818C21.738 4.69515 21.8553 4.72363 21.9897 4.72363C22.1174 4.72363 22.2347 4.69971 22.3418 4.65186C22.4489 4.60173 22.5423 4.53451 22.6221 4.4502C22.7018 4.36589 22.7645 4.27132 22.8101 4.1665C22.8556 4.06169 22.8807 3.95459 22.8853 3.84521L23.1997 3.94092C23.1997 4.1141 23.1632 4.28499 23.0903 4.45361C23.0197 4.61995 22.9206 4.77262 22.793 4.91162C22.6676 5.04834 22.5207 5.15771 22.3521 5.23975C22.1857 5.32178 22.0046 5.36279 21.8086 5.36279C21.5716 5.36279 21.362 5.31836 21.1797 5.22949C20.9997 5.13835 20.8493 5.0153 20.7285 4.86035C20.61 4.7054 20.5212 4.52767 20.4619 4.32715C20.4027 4.12663 20.373 3.91585 20.373 3.69482C20.373 3.45557 20.4095 3.23112 20.4824 3.02148C20.5553 2.81185 20.6613 2.62728 20.8003 2.46777C20.9393 2.30599 21.1079 2.18066 21.3062 2.0918C21.5067 2.00065 21.7334 1.95508 21.9863 1.95508C22.2552 1.95508 22.491 2.00749 22.6938 2.1123C22.8966 2.21712 23.0675 2.36182 23.2065 2.54639C23.3455 2.73096 23.4504 2.94515 23.521 3.18896C23.5916 3.43278 23.627 3.69482 23.627 3.9751V4.26562C23.627 4.55957 23.6007 4.84326 23.5483 5.1167C23.4959 5.38786 23.4105 5.63965 23.292 5.87207C23.1758 6.10221 23.022 6.30501 22.8306 6.48047C22.6414 6.65365 22.409 6.78923 22.1333 6.88721C21.8599 6.98291 21.5386 7.03076 21.1694 7.03076H21.0942V6.35059ZM27.6704 4.27246V5.01416H24.2593V4.27246H27.6704ZM26.3647 2.87793V6.50098H25.5684V2.87793H26.3647Z" fill="white"/>
</svg>
