<svg width="16" height="25" viewBox="0 0 16 25" fill="none" xmlns="http://www.w3.org/2000/svg">
<path d="M9.85938 16.7969H5.375C5.375 15.8802 5.4375 15.0729 5.5625 14.375C5.69792 13.6667 5.92708 13.0312 6.25 12.4688C6.57292 11.9062 7.01042 11.3854 7.5625 10.9062C8.05208 10.5 8.47396 10.1094 8.82812 9.73438C9.18229 9.35938 9.45312 8.97917 9.64062 8.59375C9.82812 8.20833 9.92188 7.79688 9.92188 7.35938C9.92188 6.81771 9.84375 6.375 9.6875 6.03125C9.54167 5.6875 9.31771 5.43229 9.01562 5.26562C8.72396 5.08854 8.35417 5 7.90625 5C7.54167 5 7.19792 5.08854 6.875 5.26562C6.5625 5.44271 6.30729 5.71875 6.10938 6.09375C5.91146 6.45833 5.80208 6.94271 5.78125 7.54688H0.484375C0.515625 5.99479 0.859375 4.73438 1.51562 3.76562C2.18229 2.78646 3.06771 2.07292 4.17188 1.625C5.28646 1.16667 6.53125 0.9375 7.90625 0.9375C9.42708 0.9375 10.7344 1.17188 11.8281 1.64062C12.9219 2.10938 13.7604 2.80729 14.3438 3.73438C14.9271 4.65104 15.2188 5.78125 15.2188 7.125C15.2188 8.02083 15.0469 8.80208 14.7031 9.46875C14.3698 10.125 13.9167 10.7396 13.3438 11.3125C12.7812 11.875 12.151 12.4792 11.4531 13.125C10.849 13.6562 10.4375 14.1979 10.2188 14.75C10 15.2917 9.88021 15.974 9.85938 16.7969ZM4.73438 21.5469C4.73438 20.7969 5.00521 20.1719 5.54688 19.6719C6.08854 19.1615 6.79167 18.9062 7.65625 18.9062C8.52083 18.9062 9.22396 19.1615 9.76562 19.6719C10.3073 20.1719 10.5781 20.7969 10.5781 21.5469C10.5781 22.2969 10.3073 22.9271 9.76562 23.4375C9.22396 23.9375 8.52083 24.1875 7.65625 24.1875C6.79167 24.1875 6.08854 23.9375 5.54688 23.4375C5.00521 22.9271 4.73438 22.2969 4.73438 21.5469Z" fill="black"/>
</svg>
