<svg width="18" height="18" viewBox="0 0 18 18" fill="none" xmlns="http://www.w3.org/2000/svg">
<mask id="path-1-inside-1_43_1020" fill="white">
<path d="M13.5278 11.9365L13.059 11.4681L12.7621 11.1818C13.8012 9.973 14.0579 8.87211 14.0579 7.16496C14.0579 3.35831 10.9723 0.272705 7.16569 0.272705C3.35905 0.272705 0.273438 3.35831 0.273438 7.16496C0.273438 10.9716 3.35905 14.0572 7.16569 14.0572C8.87285 14.0572 9.97373 13.7285 11.1825 12.6894L11.4688 12.9863L11.9372 13.527L15.5462 17.1818L17.1261 15.6019L13.5278 11.9365ZM7.16569 11.9365C4.52543 11.9365 2.39413 9.80522 2.39413 7.16496C2.39413 4.52469 4.52543 2.3934 7.16569 2.3934C9.80595 2.3934 11.9372 4.52469 11.9372 7.16496C11.9372 9.80522 9.80595 11.9365 7.16569 11.9365Z"/>
</mask>
<path d="M13.5278 11.9365L92.0242 -65.1239L91.6547 -65.5003L91.2817 -65.873L13.5278 11.9365ZM13.059 11.4681L90.8129 -66.3415L90.1195 -67.0344L89.4139 -67.7148L13.059 11.4681ZM12.7621 11.1818L-70.6527 -60.5257L-138.375 18.2533L-63.5928 90.3647L12.7621 11.1818ZM11.1825 12.6894L90.3654 -63.6656L18.254 -138.448L-60.525 -70.7255L11.1825 12.6894ZM11.4688 12.9863L94.6136 -59.0342L92.6905 -61.2543L90.6517 -63.3687L11.4688 12.9863ZM11.9372 13.527L-71.2075 85.5475L-68.8567 88.2615L-66.3338 90.8163L11.9372 13.527ZM15.5462 17.1818L-62.7249 94.4711L15.0537 173.238L93.3279 94.9635L15.5462 17.1818ZM17.1261 15.6019L94.9078 93.3836L171.975 16.3166L95.6225 -61.4586L17.1261 15.6019ZM91.2817 -65.873L90.8129 -66.3415L-64.6949 89.2776L-64.2262 89.7461L91.2817 -65.873ZM89.4139 -67.7148L89.117 -68.0011L-63.5928 90.3647L-63.2959 90.651L89.4139 -67.7148ZM96.1769 82.8893C105.26 72.3238 113.844 58.4962 119.063 41.2929C123.773 25.765 124.058 12.7713 124.058 7.16496H-95.9421C-95.9421 3.26573 -95.7858 -8.32393 -91.4633 -22.5724C-86.6327 -38.4962 -78.6962 -51.169 -70.6527 -60.5257L96.1769 82.8893ZM124.058 7.16496C124.058 -57.393 71.7236 -109.727 7.16569 -109.727V110.273C-49.779 110.273 -95.9421 64.1096 -95.9421 7.16496H124.058ZM7.16569 -109.727C-57.3923 -109.727 -109.727 -57.393 -109.727 7.16496H110.273C110.273 64.1096 64.1104 110.273 7.16569 110.273V-109.727ZM-109.727 7.16496C-109.727 71.7229 -57.3923 124.057 7.16569 124.057V-95.9428C64.1104 -95.9428 110.273 -49.7797 110.273 7.16496H-109.727ZM7.16569 124.057C14.7603 124.057 28.2351 123.393 43.9742 118.175C60.6676 112.641 73.542 104.14 82.89 96.1042L-60.525 -70.7255C-52.3857 -77.7224 -40.6661 -85.5395 -25.2522 -90.6493C-10.7925 -95.4428 1.27823 -95.9428 7.16569 -95.9428V124.057ZM-68.0003 89.0443L-67.714 89.3412L90.6517 -63.3687L90.3654 -63.6656L-68.0003 89.0443ZM-71.6759 85.0067L-71.2075 85.5475L95.082 -58.4935L94.6136 -59.0342L-71.6759 85.0067ZM-66.3338 90.8163L-62.7249 94.4711L93.8173 -60.1075L90.2083 -63.7623L-66.3338 90.8163ZM93.3279 94.9635L94.9078 93.3836L-60.6557 -62.1799L-62.2356 -60.6L93.3279 94.9635ZM95.6225 -61.4586L92.0242 -65.1239L-64.9687 88.997L-61.3703 92.6623L95.6225 -61.4586ZM7.16569 -98.0635C65.2767 -98.0635 112.394 -50.9461 112.394 7.16496H-107.606C-107.606 70.5566 -56.2259 121.937 7.16569 121.937V-98.0635ZM112.394 7.16496C112.394 65.276 65.2767 112.393 7.16569 112.393V-107.607C-56.2259 -107.607 -107.606 -56.2266 -107.606 7.16496H112.394ZM7.16569 112.393C-50.9454 112.393 -98.0628 65.276 -98.0628 7.16496H121.937C121.937 -56.2266 70.5573 -107.607 7.16569 -107.607V112.393ZM-98.0628 7.16496C-98.0628 -50.9461 -50.9454 -98.0635 7.16569 -98.0635V121.937C70.5573 121.937 121.937 70.5565 121.937 7.16496H-98.0628Z" fill="#5F5F5F" mask="url(#path-1-inside-1_43_1020)"/>
</svg>
